<?xml version="1.0" encoding="UTF-8"?>
<svg version="1.1" xmlns="http://www.w3.org/2000/svg" width="293" height="138">
<path d="M0 0 C1.81604012 0.01440707 1.81604012 0.01440707 3.66876793 0.02910519 C6.31974351 0.05080921 8.97062397 0.07441193 11.62154579 0.10117722 C15.92499882 0.14450033 20.2284964 0.18003613 24.5320282 0.21450806 C30.7604105 0.2650153 36.98876111 0.31844612 43.21710205 0.37380981 C59.74364724 0.52010029 76.27035854 0.64474973 92.79711914 0.76391602 C93.64232841 0.77005551 94.48753767 0.776195 95.35835934 0.78252053 C133.05272984 1.05541763 170.74605284 1.11137986 208.44128656 1.08574533 C210.69357836 1.08422193 212.9458702 1.08281533 215.19816208 1.08143234 C233.15173441 1.07019182 251.1052835 1.05000526 269.05883789 1.02172852 C269.05883789 9.27172852 269.05883789 17.52172852 269.05883789 26.02172852 C254.86883789 26.02172852 240.67883789 26.02172852 226.05883789 26.02172852 C226.05883789 60.34172852 226.05883789 94.66172852 226.05883789 130.02172852 C218.13883789 130.02172852 210.21883789 130.02172852 202.05883789 130.02172852 C201.05883789 129.02172852 201.05883789 129.02172852 200.93579006 127.29009151 C200.93671185 126.53145589 200.93763365 125.77282026 200.93858337 124.99119568 C200.93652138 123.68914688 200.93652138 123.68914688 200.93441772 122.36079407 C200.938013 121.40126328 200.94160828 120.44173248 200.9453125 119.453125 C200.94516647 118.44836121 200.94502045 117.44359741 200.94487 116.40838623 C200.94556959 113.06984334 200.95336415 109.73135547 200.96118164 106.39282227 C200.96304566 104.08496633 200.96446964 101.77711001 200.96546936 99.46925354 C200.96929585 93.38155025 200.97912724 87.29387066 200.99017334 81.20617676 C201.00038466 74.99951498 201.00496638 68.79284939 201.01000977 62.58618164 C201.0207494 50.39801849 201.03834725 38.20987918 201.05883789 26.02172852 C192.47883789 26.35172852 183.89883789 26.68172852 175.05883789 27.02172852 C177.03883789 30.32172852 179.01883789 33.62172852 181.05883789 37.02172852 C182.0692936 39.26105197 183.02150154 41.52915401 183.87133789 43.83422852 C184.2696582 44.89254883 184.66797852 45.95086914 185.07836914 47.04125977 C189.92835261 61.78443659 187.99274308 79.01532463 181.73852539 92.96704102 C173.3810402 109.36232617 160.40519652 120.8612634 143.18774414 127.16235352 C132.35668211 130.13717704 122.01269659 130.2666619 110.87133789 130.14672852 C109.23527569 130.13667441 107.59920747 130.12755288 105.96313477 130.11938477 C101.99488473 130.09757344 98.02692938 130.06317905 94.05883789 130.02172852 C93.25092511 123.71726954 92.94106576 117.62949427 93.03710938 111.27929688 C93.04671692 110.35139343 93.05632446 109.42348999 93.06622314 108.46746826 C93.0989309 105.43208537 93.13936866 102.39685946 93.17993164 99.36157227 C93.20426042 97.24451738 93.22810255 95.12745684 93.2514801 93.01039124 C93.31404675 87.46198047 93.38318984 81.91367073 93.45373535 76.36535645 C93.52466775 70.69421963 93.58933523 65.02301168 93.65454102 59.35180664 C93.78319948 48.24170241 93.91881056 37.13169487 94.05883789 26.02172852 C92.78928757 26.13759308 91.51973724 26.25345764 90.2117157 26.37283325 C89.14053261 26.47059398 89.14053261 26.47059398 88.04770947 26.57032967 C84.58142001 27.35704666 83.42752173 29.69295403 81.57836914 32.57641602 C81.20255707 33.14558243 80.826745 33.71474884 80.43954468 34.30116272 C79.22533423 36.15152169 78.04840258 38.0225664 76.87133789 39.89672852 C76.04405635 41.1763528 75.21436777 42.45442401 74.38232422 43.73095703 C73.12980739 45.65444705 71.87985441 47.5792251 70.64024353 49.51106262 C68.14594382 53.39391391 65.56406392 57.18751181 62.86352539 60.93188477 C61.93769653 62.22280029 61.93769653 62.22280029 60.99316406 63.53979492 C59.85427587 65.1172068 58.70387745 66.68639102 57.54052734 68.24584961 C57.04512451 68.94403809 56.54972168 69.64222656 56.03930664 70.36157227 C55.60513428 70.95317139 55.17096191 71.54477051 54.72363281 72.15429688 C53.82600022 74.10254293 53.82600022 74.10254293 54.7578125 76.4609375 C56.02659326 78.95826184 57.37646614 81.30094136 58.89477539 83.65454102 C59.4588208 84.53408447 60.02286621 85.41362793 60.60400391 86.31982422 C61.20784912 87.25270264 61.81169434 88.18558105 62.43383789 89.14672852 C63.7010029 91.12183631 64.96792549 93.09709965 66.23461914 95.07250977 C66.87351074 96.06589355 67.51240234 97.05927734 68.1706543 98.08276367 C71.00247107 102.49049709 73.81592488 106.90965571 76.62133789 111.33422852 C77.09684082 112.07882324 77.57234375 112.82341797 78.06225586 113.59057617 C81.25835443 118.63149416 84.2122286 123.77586726 87.05883789 129.02172852 C84.35263344 131.72793296 77.0564196 130.59833316 73.43383789 130.70922852 C71.6684668 130.82814453 71.6684668 130.82814453 69.86743164 130.94946289 C61.35024647 131.15544656 61.35024647 131.15544656 57.88549805 128.11376953 C56.0311749 125.50421901 54.53798958 122.85955691 53.05883789 120.02172852 C51.97663887 118.2674797 50.88558558 116.51865977 49.78540039 114.77563477 C48.74771555 113.04746038 47.71384612 111.3169892 46.68383789 109.58422852 C46.15145508 108.70057617 45.61907227 107.81692383 45.07055664 106.90649414 C41.18924597 100.41295275 41.18924597 100.41295275 40.05883789 97.02172852 C36.53703809 100.25406532 34.0157952 103.91341528 31.43383789 107.89672852 C30.98838623 108.54714111 30.54293457 109.19755371 30.08398438 109.86767578 C27.81201505 113.20029922 25.80393784 116.44450644 24.13305664 120.11938477 C22.07549128 124.24686088 20.23024466 127.77155585 16.05883789 130.02172852 C7.19703653 131.74013395 -2.01405695 130.87667123 -10.94116211 130.02172852 C-10.33757513 125.84042319 -7.94830835 122.7653498 -5.60131836 119.37719727 C-5.1603331 118.73035477 -4.71934784 118.08351227 -4.26499939 117.41706848 C-2.85003536 115.34397659 -1.4271448 113.27647793 -0.00366211 111.20922852 C1.37996554 109.18879699 2.76191916 107.16722823 4.14370728 105.14553833 C5.06424482 103.79916642 5.98561254 102.45336174 6.9078064 101.10812378 C10.5888752 95.7325677 14.21164413 90.31972759 17.80223083 84.88334656 C19.41265485 82.45215531 20.98035652 80.11149724 22.90234375 77.91308594 C24.28400921 76.05009982 24.28400921 76.05009982 23.94970703 73.62792969 C22.90272757 70.56503418 21.50501704 68.07963135 19.80493164 65.32250977 C18.7812146 63.65007202 18.7812146 63.65007202 17.73681641 61.94384766 C16.99006346 60.74059583 16.24323555 59.53739052 15.49633789 58.33422852 C14.73382511 57.09304821 13.97203433 55.85142408 13.2109375 54.609375 C10.83698957 50.74056382 8.44949159 46.88023334 6.05883789 43.02172852 C5.67038696 42.39468018 5.28193604 41.76763184 4.88171387 41.12158203 C4.11192709 39.87901984 3.34208626 38.63649114 2.57218933 37.39399719 C1.10409506 35.02357907 -0.36179942 32.65180311 -1.82785034 30.28012085 C-2.86065299 28.61329322 -3.8990291 26.94992318 -4.9375 25.28662109 C-5.56648193 24.27237061 -6.19546387 23.25812012 -6.84350586 22.21313477 C-7.39514404 21.32827393 -7.94678223 20.44341309 -8.51513672 19.53173828 C-9.94116211 17.02172852 -9.94116211 17.02172852 -11.01367188 14.25976562 C-12.18790229 11.42634362 -13.2586113 11.32235921 -15.94116211 10.02172852 C-17.75366211 7.64672852 -17.75366211 7.64672852 -18.94116211 5.02172852 C-18.62866211 2.70922852 -18.62866211 2.70922852 -17.94116211 1.02172852 C-11.97814114 -0.29763181 -6.0691811 -0.06941782 0 0 Z M22.05883789 26.02172852 C28.05295366 36.30915047 28.05295366 36.30915047 34.49633789 46.27172852 C34.94170898 46.93301758 35.38708008 47.59430664 35.84594727 48.27563477 C36.91360397 49.85989956 37.98570004 51.44117136 39.05883789 53.02172852 C41.97268011 50.25700739 44.2814529 47.44453438 46.51196289 44.10766602 C47.13071289 43.18211914 47.74946289 42.25657227 48.38696289 41.30297852 C49.02118164 40.34391602 49.65540039 39.38485352 50.30883789 38.39672852 C50.95852539 37.42993164 51.60821289 36.46313477 52.27758789 35.46704102 C52.89118164 34.54407227 53.50477539 33.62110352 54.13696289 32.67016602 C54.69802734 31.82631348 55.2590918 30.98246094 55.8371582 30.11303711 C57.22697453 28.13757336 57.22697453 28.13757336 57.05883789 26.02172852 C45.50883789 26.02172852 33.95883789 26.02172852 22.05883789 26.02172852 Z M118.05883789 26.02172852 C118.05883789 52.09172852 118.05883789 78.16172852 118.05883789 105.02172852 C131.31255752 105.02172852 141.44056724 103.54588693 151.05883789 94.02172852 C158.97100686 85.55901101 163.51132363 75.3541114 163.33618164 63.67797852 C162.07594265 51.60808395 156.64385888 41.29713126 147.34399414 33.59204102 C137.76665815 27.01069218 129.76253532 26.02172852 118.05883789 26.02172852 Z " fill="#706DAF" transform="translate(21.941162109375,3.978271484375)"/>
<path d="M0 0 C14.30766136 -0.04668014 28.61531094 -0.08183637 42.92303276 -0.10362434 C49.56606556 -0.11407935 56.20904735 -0.1282698 62.85205078 -0.15087891 C69.2581139 -0.17254614 75.66412784 -0.18455568 82.07022476 -0.18975449 C84.51915385 -0.19346127 86.96808012 -0.20069925 89.41698837 -0.21146011 C92.83648329 -0.22589367 96.25577269 -0.22798136 99.67529297 -0.22705078 C100.69668365 -0.23424133 101.71807434 -0.24143188 102.77041626 -0.24884033 C104.16287567 -0.24471634 104.16287567 -0.24471634 105.58346558 -0.24050903 C106.39279982 -0.24235262 107.20213406 -0.24419621 108.03599358 -0.24609566 C110 0 110 0 112 2 C107.05 1.67 102.1 1.34 97 1 C97 27.07 97 53.14 97 80 C101.95 79.67 106.9 79.34 112 79 C111.67 79.66 111.34 80.32 111 81 C106.05 81 101.1 81 96 81 C96 54.6 96 28.2 96 1 C67.5327898 -1.24467117 67.5327898 -1.24467117 58.2734375 7.5546875 C56.81480832 10.00815307 55.5842535 12.31684307 54.375 14.875 C53.66145416 16.15942347 52.93639255 17.43751142 52.20043945 18.70922852 C50.74587683 21.24552973 49.34944961 23.8018568 47.98974609 26.39013672 C44.76454722 32.40723955 40.55767348 37.77073184 36.47607422 43.22412109 C35.98252441 43.92230957 35.48897461 44.62049805 34.98046875 45.33984375 C34.54629639 45.93144287 34.11212402 46.52304199 33.66479492 47.13256836 C32.76716233 49.08081442 32.76716233 49.08081442 33.69897461 51.43920898 C34.96775537 53.93653332 36.31762825 56.27921284 37.8359375 58.6328125 C38.39998291 59.51235596 38.96402832 60.39189941 39.54516602 61.2980957 C40.14901123 62.23097412 40.75285645 63.16385254 41.375 64.125 C42.64216501 66.10010779 43.9090876 68.07537113 45.17578125 70.05078125 C45.81467285 71.04416504 46.45356445 72.03754883 47.11181641 73.06103516 C49.94363318 77.46876858 52.75708699 81.8879272 55.5625 86.3125 C56.03800293 87.05709473 56.51350586 87.80168945 57.00341797 88.56884766 C60.19951654 93.60976564 63.15339071 98.75413874 66 104 C63.29379555 106.70620445 55.99758171 105.57660464 52.375 105.6875 C51.19808594 105.76677734 50.02117187 105.84605469 48.80859375 105.92773438 C40.29140858 106.13371804 40.29140858 106.13371804 36.82666016 103.09204102 C34.97233701 100.48249049 33.47915169 97.83782839 32 95 C30.91780098 93.24575118 29.82674769 91.49693126 28.7265625 89.75390625 C27.68887766 88.02573187 26.65500823 86.29526068 25.625 84.5625 C25.09261719 83.67884766 24.56023437 82.79519531 24.01171875 81.88476562 C20.13040808 75.39122423 20.13040808 75.39122423 19 72 C15.4782002 75.2323368 12.95695731 78.89168676 10.375 82.875 C9.92954834 83.5254126 9.48409668 84.1758252 9.02514648 84.84594727 C6.75317716 88.17857071 4.74509995 91.42277793 3.07421875 95.09765625 C1.01665339 99.22513236 -0.82859323 102.74982733 -5 105 C-13.86180136 106.71840543 -23.07289484 105.85494272 -32 105 C-31.39641302 100.81869468 -29.00714624 97.74362128 -26.66015625 94.35546875 C-26.21917099 93.70862625 -25.77818573 93.06178375 -25.32383728 92.39533997 C-23.90887326 90.32224808 -22.48598269 88.25474941 -21.0625 86.1875 C-19.67887235 84.16706848 -18.29691873 82.14549972 -16.91513062 80.12380981 C-15.99459307 78.7774379 -15.07322535 77.43163323 -14.15103149 76.08639526 C-10.46996269 70.71083918 -6.84719376 65.29799908 -3.25660706 59.86161804 C-1.64048935 57.42183127 -0.02097127 55.026853 1.78100586 52.71948242 C3.21687821 51.04536701 3.21687821 51.04536701 3 48.75 C1.78689674 45.41396604 0.03880532 42.70338579 -1.94140625 39.76953125 C-3 38 -3 38 -3 36 C-0.03 35.505 -0.03 35.505 3 35 C3.598125 35.825 4.19625 36.65 4.8125 37.5 C5.534375 38.325 6.25625 39.15 7 40 C7.99 40 8.98 40 10 40 C11.69547681 38.00473828 11.69547681 38.00473828 13.1875 35.5 C13.71730469 34.6646875 14.24710938 33.829375 14.79296875 32.96875 C15.19128906 32.3190625 15.58960938 31.669375 16 31 C15.484375 30.236875 14.96875 29.47375 14.4375 28.6875 C13.963125 27.800625 13.48875 26.91375 13 26 C13.495 24.515 13.495 24.515 14 23 C13.34 23 12.68 23 12 23 C12.33 21.68 12.66 20.36 13 19 C15.475 22.96 15.475 22.96 18 27 C20.66581614 23.7392268 23.12714351 20.42847785 25.453125 16.91796875 C26.01161133 16.0777417 26.57009766 15.23751465 27.14550781 14.37182617 C28.18723145 12.79558472 28.18723145 12.79558472 29.25 11.1875 C31.4775 7.825625 33.705 4.46375 36 1 C24.12 1.33 12.24 1.66 0 2 C0 1.34 0 0.68 0 0 Z " fill="#6585C2" transform="translate(43,29)"/>
<path d="M0 0 C0 7.59 0 15.18 0 23 C-31.35 23 -62.7 23 -95 23 C-95.33 21.68 -95.66 20.36 -96 19 C-96.66 19 -97.32 19 -98 19 C-98 17.35 -98 15.7 -98 14 C-98.66 14 -99.32 14 -100 14 C-100.66 12.68 -101.32 11.36 -102 10 C-103.32 10.33 -104.64 10.66 -106 11 C-106.99 9.02 -107.98 7.04 -109 5 C-108.0546875 3.01171875 -108.0546875 3.01171875 -106 1 C-102.92320614 0.7171836 -100.19069274 0.68033597 -97.125 0.8125 C-95.17588598 0.85532664 -93.22664956 0.89282006 -91.27734375 0.92578125 C-90.24206543 0.94463379 -89.20678711 0.96348633 -88.14013672 0.98291016 C-82.98121504 1.01098701 -77.83991465 0.73508248 -72.6875 0.5 C-48.48275127 -0.5073136 -24.2191904 -0.0758166 0 0 Z " fill="#7260A6" transform="translate(290,6)"/>
<path d="M0 0 C2.69267003 3.47511232 4.88971616 7.21950038 7.125 11 C8.43926325 13.16978041 9.75437977 15.33904419 11.0703125 17.5078125 C11.72418945 18.59481445 12.37806641 19.68181641 13.05175781 20.80175781 C14.88530744 23.81172023 16.76587047 26.78277287 18.6796875 29.7421875 C19.24155762 30.61230469 19.80342773 31.48242188 20.38232422 32.37890625 C21.44423941 34.01745453 22.51082853 35.65298508 23.58251953 37.28515625 C24.05028809 38.01347656 24.51805664 38.74179688 25 39.4921875 C25.4125 40.12495605 25.825 40.75772461 26.25 41.40966797 C26.4975 41.93447754 26.745 42.45928711 27 43 C26.505 43.99 26.505 43.99 26 45 C21.81398464 45.29191181 17.63058789 45.46845805 13.4375 45.625 C12.25607422 45.70878906 11.07464844 45.79257813 9.85742188 45.87890625 C1.26213829 46.1196705 1.26213829 46.1196705 -2.1953125 43.05249023 C-4.03069878 40.45294794 -5.52416617 37.81756842 -7 35 C-8.00512628 33.43551434 -9.02285406 31.87903286 -10.0546875 30.33203125 C-10.99805737 28.82756365 -11.93819764 27.32106581 -12.875 25.8125 C-13.3596875 25.05775391 -13.844375 24.30300781 -14.34375 23.52539062 C-17.1393525 19.01572458 -18.81271895 15.43783917 -19 10 C-17.39080797 4.81482567 -15.22573932 1.42083659 -11 -2 C-6.46163263 -3.86189431 -3.97613788 -2.64760668 0 0 Z " fill="#7272B2" transform="translate(82,89)"/>
<path d="M0 0 C0.99369284 0.00184359 1.98738567 0.00368717 3.01119041 0.00558662 C4.14985054 0.0028373 5.28851067 0.00008797 6.46167564 -0.00274467 C8.34441437 0.00804115 8.34441437 0.00804115 10.26518822 0.01904488 C11.5822123 0.01875282 12.89923637 0.01846077 14.25617027 0.01815987 C17.87375927 0.01758463 21.49121639 0.02936642 25.10877466 0.04330778 C28.88709188 0.0557868 32.66541192 0.0569834 36.44374657 0.0593586 C43.6012762 0.06558171 50.75874494 0.08200372 57.91624773 0.10205758 C66.06365169 0.12439077 74.21105852 0.1354035 82.35848546 0.14544845 C99.12088471 0.16636927 115.88320005 0.20305583 132.64555931 0.24609566 C132.64555931 8.49609566 132.64555931 16.74609566 132.64555931 25.24609566 C118.45555931 25.24609566 104.26555931 25.24609566 89.64555931 25.24609566 C89.64555931 59.56609566 89.64555931 93.88609566 89.64555931 129.24609566 C81.72555931 129.24609566 73.80555931 129.24609566 65.64555931 129.24609566 C64.64555931 128.24609566 64.64555931 128.24609566 64.52251148 126.51445866 C64.52343328 125.75582303 64.52435507 124.9971874 64.52530479 124.21556282 C64.5232428 122.91351402 64.5232428 122.91351402 64.52113914 121.58516121 C64.52653206 120.14586502 64.52653206 120.14586502 64.53203392 118.67749214 C64.53188789 117.67272835 64.53174187 116.66796455 64.53159142 115.63275337 C64.53229101 112.29421048 64.54008557 108.95572261 64.54790306 105.61718941 C64.54976708 103.30933348 64.55119106 101.00147715 64.55219078 98.69362068 C64.55601727 92.6059174 64.56584866 86.5182378 64.57689476 80.4305439 C64.58710608 74.22388212 64.5916878 68.01721653 64.59673119 61.81054878 C64.60747082 49.62238563 64.62506867 37.43424632 64.64555931 25.24609566 C55.40555931 25.57609566 46.16555931 25.90609566 36.64555931 26.24609566 C36.64555931 25.58609566 36.64555931 24.92609566 36.64555931 24.24609566 C67.99555931 24.24609566 99.34555931 24.24609566 131.64555931 24.24609566 C131.64555931 16.65609566 131.64555931 9.06609566 131.64555931 1.24609566 C68.78055931 1.74109566 68.78055931 1.74109566 4.64555931 2.24609566 C7.28555931 3.23609566 9.92555931 4.22609566 12.64555931 5.24609566 C8.77360761 6.53674622 6.2032333 5.46933664 2.45805931 4.30859566 C1.47676048 4.0156562 1.47676048 4.0156562 0.47563744 3.71679878 C-1.13671476 3.23427002 -2.74590358 2.7411936 -4.35444069 2.24609566 C-2.35444069 0.24609566 -2.35444069 0.24609566 0 0 Z M65.64555931 25.24609566 C65.64555931 59.23609566 65.64555931 93.22609566 65.64555931 128.24609566 C73.23555931 128.24609566 80.82555931 128.24609566 88.64555931 128.24609566 C88.64555931 94.25609566 88.64555931 60.26609566 88.64555931 25.24609566 C81.05555931 25.24609566 73.46555931 25.24609566 65.64555931 25.24609566 Z " fill="#E2DCF4" transform="translate(158.3544406890869,4.753904342651367)"/>
<path d="M0 0 C24.42 0 48.84 0 74 0 C74 0.33 74 0.66 74 1 C68.48653228 1.14406281 62.97302384 1.28641342 57.45947266 1.42724609 C55.58771602 1.47528946 53.71597088 1.5237832 51.84423828 1.57275391 C49.13837611 1.6434671 46.43247535 1.71250662 43.7265625 1.78125 C42.90322418 1.80312378 42.07988586 1.82499756 41.2315979 1.84753418 C35.4866935 1.99129238 29.74658593 2.02394609 24 2 C23.34 3.32 22.68 4.64 22 6 C22.66 6.66 23.32 7.32 24 8 C24.33 8.66 24.66 9.32 25 10 C27.52733235 10.65555119 27.52733235 10.65555119 30 11 C30 11.99 30 12.98 30 14 C30.66 14 31.32 14 32 14 C32 15.65 32 17.3 32 19 C32.66 19 33.32 19 34 19 C34.495 21.475 34.495 21.475 35 24 C34.01 23.154375 33.02 22.30875 32 21.4375 C31.35804688 20.8909375 30.71609375 20.344375 30.0546875 19.78125 C28.7085263 18.61423573 27.37943289 17.42716883 26.0703125 16.21875 C21.41137875 11.95273838 16.64240456 8.8342634 11 6 C11 5.34 11 4.68 11 4 C7.37 3.01 3.74 2.02 0 1 C0 0.67 0 0.34 0 0 Z " fill="#6F88BD" transform="translate(160,6)"/>
<path d="M0 0 C14.30766136 -0.04668014 28.61531094 -0.08183637 42.92303276 -0.10362434 C49.56606556 -0.11407935 56.20904735 -0.1282698 62.85205078 -0.15087891 C69.2581139 -0.17254614 75.66412784 -0.18455568 82.07022476 -0.18975449 C84.51915385 -0.19346127 86.96808012 -0.20069925 89.41698837 -0.21146011 C92.83648329 -0.22589367 96.25577269 -0.22798136 99.67529297 -0.22705078 C100.69668365 -0.23424133 101.71807434 -0.24143188 102.77041626 -0.24884033 C104.16287567 -0.24471634 104.16287567 -0.24471634 105.58346558 -0.24050903 C106.79746694 -0.24327441 106.79746694 -0.24327441 108.03599358 -0.24609566 C110 0 110 0 112 2 C107.05 1.67 102.1 1.34 97 1 C97 27.07 97 53.14 97 80 C101.95 79.67 106.9 79.34 112 79 C111.67 79.66 111.34 80.32 111 81 C106.05 81 101.1 81 96 81 C96 54.6 96 28.2 96 1 C67.71296648 -1.62488798 67.71296648 -1.62488798 61 6 C61 4.35 61 2.7 61 1 C53.08 1 45.16 1 37 1 C36.67 1.66 36.34 2.32 36 3 C36 2.34 36 1.68 36 1 C24.12 1.33 12.24 1.66 0 2 C0 1.34 0 0.68 0 0 Z " fill="#D5D5F1" transform="translate(43,29)"/>
<path d="M0 0 C1.20305786 0.00703949 2.40611572 0.01407898 3.64562988 0.02133179 C5.60497971 0.04075081 5.60497971 0.04075081 7.60391235 0.06056213 C9.00379118 0.07071466 10.4036734 0.08040727 11.80355835 0.0896759 C15.59238546 0.11605939 19.38113282 0.14885839 23.16989851 0.1828258 C27.13368434 0.21726577 31.09751271 0.24578261 35.06134033 0.27493286 C42.56227945 0.33099268 50.06316528 0.39236471 57.5640465 0.4556542 C66.10570895 0.52746608 74.64741397 0.59334233 83.18912768 0.65872467 C100.755342 0.79331756 118.32148849 0.93534932 135.88760376 1.08229065 C135.88760376 1.41229065 135.88760376 1.74229065 135.88760376 2.08229065 C88.03760376 2.08229065 40.18760376 2.08229065 -9.11239624 2.08229065 C-7.79239624 4.39229065 -6.47239624 6.70229065 -5.11239624 9.08229065 C-5.11239624 10.07229065 -5.11239624 11.06229065 -5.11239624 12.08229065 C-4.45239624 12.08229065 -3.79239624 12.08229065 -3.11239624 12.08229065 C-3.11239624 13.40229065 -3.11239624 14.72229065 -3.11239624 16.08229065 C-2.45239624 16.08229065 -1.79239624 16.08229065 -1.11239624 16.08229065 C-1.44239624 17.40229065 -1.77239624 18.72229065 -2.11239624 20.08229065 C-6.11239624 14.33229065 -6.11239624 14.33229065 -6.11239624 12.08229065 C-6.71052124 11.85541565 -7.30864624 11.62854065 -7.92489624 11.39479065 C-10.75617711 9.69602213 -11.75962137 8.0726351 -13.11239624 5.08229065 C-12.79989624 2.76979065 -12.79989624 2.76979065 -12.11239624 1.08229065 C-8.01326737 0.30746211 -4.16902644 -0.03320464 0 0 Z " fill="#E1EAFA" transform="translate(16.112396240234375,3.9177093505859375)"/>
<path d="M0 0 C0.33 0.99 0.66 1.98 1 3 C2.93618425 3.67156616 2.93618425 3.67156616 5 4 C5.66 4.33 6.32 4.66 7 5 C6.67 6.65 6.34 8.3 6 10 C6.66 10.33 7.32 10.66 8 11 C8 11.99 8 12.98 8 14 C10.31 14.66 12.62 15.32 15 16 C15.02578125 16.62648438 15.0515625 17.25296875 15.078125 17.8984375 C15.13484375 18.71570313 15.1915625 19.53296875 15.25 20.375 C15.29640625 21.18710937 15.3428125 21.99921875 15.390625 22.8359375 C15.80075105 25.14845978 15.80075105 25.14845978 17.859375 26.3515625 C20.15076115 27.27067972 20.15076115 27.27067972 23 26 C22.98839844 26.63808594 22.97679688 27.27617188 22.96484375 27.93359375 C22.95582031 28.75988281 22.94679688 29.58617188 22.9375 30.4375 C22.92589844 31.26121094 22.91429688 32.08492187 22.90234375 32.93359375 C22.76732652 34.99163938 22.76732652 34.99163938 24 36 C24.04092937 38.33297433 24.04241723 40.66705225 24 43 C20.00997264 38.35142444 16.93273019 33.21251844 13.75 28 C12.59662467 26.11571982 11.44297909 24.23160502 10.2890625 22.34765625 C9.72993164 21.43387207 9.17080078 20.52008789 8.59472656 19.57861328 C7.20074972 17.32460479 5.78062166 15.09278371 4.3359375 12.87109375 C3.95598633 12.28005859 3.57603516 11.68902344 3.18457031 11.08007812 C2.19573908 9.54716187 1.19593739 8.02133776 0.1953125 6.49609375 C-1 4 -1 4 -0.6953125 1.66015625 C-0.46585938 1.11230469 -0.23640625 0.56445312 0 0 Z " fill="#88A8D0" transform="translate(16,22)"/>
<path d="M0 0 C0.33 0.66 0.66 1.32 1 2 C13.21 2 25.42 2 38 2 C38 2.66 38 3.32 38 4 C24.47 4 10.94 4 -3 4 C-3 4.66 -3 5.32 -3 6 C-2.01 6.33 -1.02 6.66 0 7 C1.69916285 9.28577859 3.23953185 11.53361614 4.75 13.9375 C5.17410156 14.58396484 5.59820312 15.23042969 6.03515625 15.89648438 C7.09285685 17.55538613 8.05468148 19.27458455 9 21 C8.67 21.66 8.34 22.32 8 23 C6.68 22.34 5.36 21.68 4 21 C4 20.01 4 19.02 4 18 C3.34 18 2.68 18 2 18 C1.34 17.01 0.68 16.02 0 15 C-0.66 14.21625 -1.32 13.4325 -2 12.625 C-3.9659504 10.0446901 -5.27036167 8.16176611 -6 5 C-4.3358761 1.84692313 -3.42447685 1.14149228 0 0 Z " fill="#6E89B6" transform="translate(46,25)"/>
<path d="M0 0 C29.37 0 58.74 0 89 0 C89 0.33 89 0.66 89 1 C62.27 1.33 35.54 1.66 8 2 C6.73615263 6.61692375 6.73615263 6.61692375 7.5625 9.6875 C7.706875 10.450625 7.85125 11.21375 8 12 C7.34 12.66 6.68 13.32 6 14 C6 12.68 6 11.36 6 10 C5.34 10 4.68 10 4 10 C3.32845067 8.71086513 2.66291141 7.41859796 2 6.125 C1.62875 5.40570312 1.2575 4.68640625 0.875 3.9453125 C0 2 0 2 0 0 Z " fill="#7596C5" transform="translate(7,6)"/>
<path d="M0 0 C0.66 0.33 1.32 0.66 2 1 C0.3189585 4.6349222 -1.83332 7.86598135 -4.0625 11.1875 C-5.13177734 12.78658203 -5.13177734 12.78658203 -6.22265625 14.41796875 C-8 17 -8 17 -9 18 C-10.99964982 18.08758003 -13.0023611 18.10696576 -15.00390625 18.09765625 C-16.21884766 18.09443359 -17.43378906 18.09121094 -18.68554688 18.08789062 C-19.96494141 18.07951172 -21.24433594 18.07113281 -22.5625 18.0625 C-23.84576172 18.05798828 -25.12902344 18.05347656 -26.45117188 18.04882812 C-29.63416022 18.03699545 -32.81705762 18.02051068 -36 18 C-35.62890625 16.078125 -35.62890625 16.078125 -35 14 C-32.9375 12.75 -32.9375 12.75 -31 12 C-31 13.32 -31 14.64 -31 16 C-30.360625 15.835 -29.72125 15.67 -29.0625 15.5 C-22.64003569 14.4514344 -16.3844421 14.91328645 -10 16 C-9.34 14.68 -8.68 13.36 -8 12 C-7.34 12 -6.68 12 -6 12 C-5.97873047 11.07767578 -5.97873047 11.07767578 -5.95703125 10.13671875 C-5.81133878 7.66782211 -5.59529472 5.40243941 -5 3 C-2.5625 0.875 -2.5625 0.875 0 0 Z " fill="#A2A7CA" transform="translate(47,116)"/>
<path d="M0 0 C0.33 0.66 0.66 1.32 1 2 C0.52949219 2.64066406 0.05898438 3.28132813 -0.42578125 3.94140625 C-4.62475229 9.69748833 -4.62475229 9.69748833 -7.75 16.0625 C-8.1625 17.031875 -8.575 18.00125 -9 19 C-9.99 19.33 -10.98 19.66 -12 20 C-11.71125 19.21625 -11.4225 18.4325 -11.125 17.625 C-10.95532137 12.70431963 -12.9823624 10.18596997 -15.65234375 6.171875 C-17 4 -17 4 -17 2 C-15.02 1.67 -13.04 1.34 -11 1 C-10.401875 1.825 -9.80375 2.65 -9.1875 3.5 C-8.465625 4.325 -7.74375 5.15 -7 6 C-6.01 6 -5.02 6 -4 6 C-1.78831775 3.05763218 -1.78831775 3.05763218 0 0 Z " fill="#8099CD" transform="translate(57,63)"/>
<path d="M0 0 C1.22351166 0.01078583 1.22351166 0.01078583 2.47174072 0.02178955 C3.33034698 0.0214975 4.18895325 0.02120544 5.07357788 0.02090454 C7.91977952 0.02230111 10.76572138 0.03787761 13.61187744 0.05352783 C15.58199928 0.0572568 17.55212296 0.06010432 19.52224731 0.06210327 C24.71400042 0.06974887 29.90564208 0.08940529 35.09735107 0.11151123 C40.39254244 0.13194973 45.68775177 0.14110071 50.98297119 0.15118408 C61.37755148 0.17265032 71.77204895 0.20679741 82.16656494 0.24884033 C82.16656494 0.57884033 82.16656494 0.90884033 82.16656494 1.24884033 C55.43656494 1.57884033 28.70656494 1.90884033 1.16656494 2.24884033 C3.80656494 3.23884033 6.44656494 4.22884033 9.16656494 5.24884033 C5.29461324 6.5394909 2.72423893 5.47208132 -1.02093506 4.31134033 C-2.00223389 4.01840088 -2.00223389 4.01840088 -3.00335693 3.71954346 C-4.61570913 3.2370147 -6.22489795 2.74393828 -7.83343506 2.24884033 C-5.25040422 -0.33419051 -3.51916795 0.01301859 0 0 Z " fill="#E2E5FA" transform="translate(161.83343505859375,4.75115966796875)"/>
<path d="M0 0 C2.9375 0.8125 2.9375 0.8125 6 2 C6.33 2.99 6.66 3.98 7 5 C14.26 5 21.52 5 29 5 C29.33 4.34 29.66 3.68 30 3 C30.66 4.32 31.32 5.64 32 7 C29.31585818 9.68414182 21.8510057 8.43089755 18.25 8.5 C17.05632812 8.55414063 15.86265625 8.60828125 14.6328125 8.6640625 C5.99662689 8.79930478 5.99662689 8.79930478 3.05664062 6.44140625 C0 2.22505289 0 2.22505289 0 0 Z " fill="#BCB6D5" transform="translate(77,126)"/>
<path d="M0 0 C2.125 0.9375 2.125 0.9375 4 2 C1.49206349 5.76190476 1.49206349 5.76190476 -0.9375 6.9375 C-3.23175211 7.93577259 -3.23175211 7.93577259 -4.9375 10.5 C-7.18526058 13.22455827 -8.70001399 13.92973427 -12 15 C-12.33 15.33 -12.66 15.66 -13 16 C-14.99958364 16.04080783 -17.00045254 16.04254356 -19 16 C-17.02765857 14.51086026 -15.05060603 13.0359172 -13.03515625 11.60546875 C-8.6295336 8.43865485 -5.35883789 5.24794204 -2 1 C-1.34 0.67 -0.68 0.34 0 0 Z " fill="#8C6CA6" transform="translate(180,90)"/>
<path d="M0 0 C6.6 0 13.2 0 20 0 C21 3 21 3 19.75 6.5 C18.32677386 9.34645229 17.41672888 11.04360043 15 13 C15.0309375 11.5459375 15.0309375 11.5459375 15.0625 10.0625 C15.35618499 7.12534105 15.35618499 7.12534105 14 6 C14 4.35 14 2.7 14 1 C9.38 1 4.76 1 0 1 C0 0.67 0 0.34 0 0 Z " fill="#6595CB" transform="translate(84,30)"/>
<path d="M0 0 C1.32 0.33 2.64 0.66 4 1 C3.67 1.99 3.34 2.98 3 4 C-0.05919388 5.01973129 -2.12418025 5.11533602 -5.32421875 5.09765625 C-6.35224609 5.09443359 -7.38027344 5.09121094 -8.43945312 5.08789062 C-9.51130859 5.07951172 -10.58316406 5.07113281 -11.6875 5.0625 C-12.77095703 5.05798828 -13.85441406 5.05347656 -14.97070312 5.04882812 C-17.64719085 5.03703743 -20.32356777 5.02058063 -23 5 C-20.77952779 2.4748962 -20.30843075 2.03485305 -16.78515625 1.63671875 C-15.55667969 1.65347656 -14.32820313 1.67023437 -13.0625 1.6875 C-11.22365234 1.69330078 -11.22365234 1.69330078 -9.34765625 1.69921875 C-6.28182542 1.97467846 -4.56675768 2.38532286 -2 4 C-1.34 2.68 -0.68 1.36 0 0 Z " fill="#6F7EB4" transform="translate(107,24)"/>
<path d="M0 0 C2.74277578 3.19990508 4.6302836 6.00499382 6 10 C5.484375 9.79375 4.96875 9.5875 4.4375 9.375 C0.85332466 8.82358841 -1.63238998 9.73714624 -5 11 C-7.39909163 12.97827485 -7.39909163 12.97827485 -9 15 C-7.49072165 10.34639175 -7.49072165 10.34639175 -4.875 8.5 C-4.25625 8.005 -3.6375 7.51 -3 7 C-2.95936168 5.33382885 -2.957279 3.66611905 -3 2 C-2.01 1.34 -1.02 0.68 0 0 Z " fill="#8693C7" transform="translate(74,78)"/>
<path d="M0 0 C1.75 0.0625 1.75 0.0625 4 1 C6.44727466 4.2161819 8 6.92394904 8 11 C8.66 11 9.32 11 10 11 C10 12.32 10 13.64 10 15 C10.66 15 11.32 15 12 15 C11.67 16.32 11.34 17.64 11 19 C7 13.25 7 13.25 7 11 C6.401875 10.773125 5.80375 10.54625 5.1875 10.3125 C2.36759165 8.62055499 1.40402914 6.94846119 0 4 C0 2.68 0 1.36 0 0 Z " fill="#73A0C6" transform="translate(3,5)"/>
<path d="M0 0 C5.94 0 11.88 0 18 0 C18 7.59 18 15.18 18 23 C12.06 23 6.12 23 0 23 C0 22.67 0 22.34 0 22 C1.07121094 21.93941406 2.14242188 21.87882812 3.24609375 21.81640625 C4.64324391 21.73201463 6.04037857 21.64736594 7.4375 21.5625 C8.14455078 21.52318359 8.85160156 21.48386719 9.58007812 21.44335938 C13.08690419 21.52375562 13.08690419 21.52375562 16 20 C16.15620555 18.58672053 16.25056173 17.1664541 16.31640625 15.74609375 C16.35830078 14.89208984 16.40019531 14.03808594 16.44335938 13.15820312 C16.48267578 12.26037109 16.52199219 11.36253906 16.5625 10.4375 C16.60568359 9.53580078 16.64886719 8.63410156 16.69335938 7.70507812 C16.79977984 5.47024844 16.90042481 3.23514514 17 1 C11.39 1 5.78 1 0 1 C0 0.67 0 0.34 0 0 Z " fill="#7D5189" transform="translate(272,6)"/>
<path d="M0 0 C4.18441341 1.39480447 5.50674116 4.36739247 7.75 7.9375 C8.17410156 8.58396484 8.59820312 9.23042969 9.03515625 9.89648438 C10.09285685 11.55538613 11.05468148 13.27458455 12 15 C11.67 15.66 11.34 16.32 11 17 C9.68 16.34 8.36 15.68 7 15 C7 14.01 7 13.02 7 12 C6.34 12 5.68 12 5 12 C4.34 11.01 3.68 10.02 3 9 C2.195625 8.3503125 2.195625 8.3503125 1.375 7.6875 C-0.64822716 5.20444848 -0.20640103 3.09601543 0 0 Z " fill="#8CA4CD" transform="translate(43,31)"/>
<path d="M0 0 C0.680625 0.309375 1.36125 0.61875 2.0625 0.9375 C7.94840527 3.06644446 14.23541373 3.21636344 20.4375 3.5625 C21.16904297 3.60568359 21.90058594 3.64886719 22.65429688 3.69335938 C24.43604715 3.79816821 26.21800402 3.89945521 28 4 C28 4.33 28 4.66 28 5 C18.76 5 9.52 5 0 5 C-0.33 3.68 -0.66 2.36 -1 1 C-0.67 0.67 -0.34 0.34 0 0 Z " fill="#767DAD" transform="translate(195,24)"/>
<path d="M0 0 C0.66 0 1.32 0 2 0 C1.98259766 0.95712891 1.98259766 0.95712891 1.96484375 1.93359375 C1.95582031 2.75988281 1.94679688 3.58617187 1.9375 4.4375 C1.92589844 5.26121094 1.91429687 6.08492187 1.90234375 6.93359375 C1.76732652 8.99163938 1.76732652 8.99163938 3 10 C3.04092937 12.33297433 3.04241723 14.66705225 3 17 C-0.4265941 13.23074649 -2.1864006 10.06239627 -3 5 C-1.75 2.0625 -1.75 2.0625 0 0 Z " fill="#6389C7" transform="translate(37,48)"/>
<path d="M0 0 C2.97 0.495 2.97 0.495 6 1 C2.99810888 7.48408482 -0.59572081 13.35882351 -5 19 C-5.33 19 -5.66 19 -6 19 C-6 17.35 -6 15.7 -6 14 C-5.34 14 -4.68 14 -4 14 C-3.67 12.35 -3.34 10.7 -3 9 C-2.01 9 -1.02 9 0 9 C1.10844919 5.67465243 0.84454356 3.37817425 0 0 Z " fill="#97B0D2" transform="translate(82,58)"/>
<path d="M0 0 C3.17090332 3.02651193 5.38518598 6.39591928 7.75 10.0625 C8.17410156 10.69994141 8.59820312 11.33738281 9.03515625 11.99414062 C10.08862735 13.6223883 11.05231028 15.30799645 12 17 C11.67 17.66 11.34 18.32 11 19 C10.01 18.67 9.02 18.34 8 18 C7.34 18.66 6.68 19.32 6 20 C6.33 17.36 6.66 14.72 7 12 C6.34 12 5.68 12 5 12 C5 11.01 5 10.02 5 9 C4.01 8.67 3.02 8.34 2 8 C0.04457812 5.01540871 0 3.73585209 0 0 Z " fill="#A9A8D0" transform="translate(84,94)"/>
<path d="M0 0 C0.66 0.33 1.32 0.66 2 1 C0.38325319 4.42946293 -1.57597677 7.56263052 -3.625 10.75 C-4.57246094 12.22726563 -4.57246094 12.22726563 -5.5390625 13.734375 C-6.02117188 14.48203125 -6.50328125 15.2296875 -7 16 C-7.66 15.01 -8.32 14.02 -9 13 C-8.01 12.67 -7.02 12.34 -6 12 C-5.97873047 11.07767578 -5.97873047 11.07767578 -5.95703125 10.13671875 C-5.81133878 7.66782211 -5.59529472 5.40243941 -5 3 C-2.5625 0.875 -2.5625 0.875 0 0 Z " fill="#8E9AC6" transform="translate(47,116)"/>
<path d="M0 0 C0.66 0.66 1.32 1.32 2 2 C3.32 1.34 4.64 0.68 6 0 C5.835 0.928125 5.67 1.85625 5.5 2.8125 C4.92251612 5.95621353 4.92251612 5.95621353 5 9 C4.34 8.67 3.68 8.34 3 8 C3 7.34 3 6.68 3 6 C2.38125 6.61875 1.7625 7.2375 1.125 7.875 C-0.25 9.25 -1.625 10.625 -3 12 C-3.08226668 8.95613276 -2.97608217 6.92824652 -2 4 C-2 3.01 -2 2.02 -2 1 C-1.34 0.67 -0.68 0.34 0 0 Z " fill="#889CC8" transform="translate(59,95)"/>
<path d="M0 0 C2.64 0 5.28 0 8 0 C7.814375 0.886875 7.62875 1.77375 7.4375 2.6875 C6.82714779 5.91821398 6.82714779 5.91821398 7.5625 8.75 C7.706875 9.4925 7.85125 10.235 8 11 C7.34 11.66 6.68 12.32 6 13 C6 11.68 6 10.36 6 9 C5.34 9 4.68 9 4 9 C2.68 6.03 1.36 3.06 0 0 Z " fill="#5D9BD2" transform="translate(7,7)"/>
<path d="M0 0 C0.598125 0.763125 1.19625 1.52625 1.8125 2.3125 C3.8427055 4.90009674 3.8427055 4.90009674 5.6875 6.6875 C7 8 7 8 8 10 C7.59009208 13.27926335 7.37783838 14.62216162 5 17 C5 16.34 5 15.68 5 15 C4.34 15 3.68 15 3 15 C3 13.68 3 12.36 3 11 C2.4740625 9.700625 2.4740625 9.700625 1.9375 8.375 C1.628125 7.59125 1.31875 6.8075 1 6 C1.33 5.34 1.66 4.68 2 4 C1.34 4 0.68 4 0 4 C0 2.68 0 1.36 0 0 Z " fill="#90A7D3" transform="translate(55,48)"/>
<path d="M0 0 C0.99 0.33 1.98 0.66 3 1 C3 2.65 3 4.3 3 6 C-4.26 6 -11.52 6 -19 6 C-19 5.34 -19 4.68 -19 4 C-17.68 3.67 -16.36 3.34 -15 3 C-15 3.66 -15 4.32 -15 5 C-10.38 4.67 -5.76 4.34 -1 4 C-0.67 2.68 -0.34 1.36 0 0 Z " fill="#845A8E" transform="translate(244,127)"/>
<path d="M0 0 C0.33 0.99 0.66 1.98 1 3 C2.93618425 3.67156616 2.93618425 3.67156616 5 4 C5.66 4.33 6.32 4.66 7 5 C6.814375 5.721875 6.62875 6.44375 6.4375 7.1875 C5.98004693 10.12826973 6.26483643 12.14103058 7 15 C4.73489661 12.86147591 2.95220832 10.67088393 1.25 8.0625 C0.80140625 7.39347656 0.3528125 6.72445313 -0.109375 6.03515625 C-1.18726604 3.57208067 -0.90922753 2.47819942 0 0 Z " fill="#7EA7CF" transform="translate(16,22)"/>
<path d="M0 0 C0.82741699 0.01047363 1.65483398 0.02094727 2.50732422 0.03173828 C3.40322266 0.03818359 4.29912109 0.04462891 5.22216797 0.05126953 C6.62789062 0.07640625 6.62789062 0.07640625 8.06201172 0.10205078 C9.00689453 0.11107422 9.95177734 0.12009766 10.92529297 0.12939453 C13.26278464 0.15300556 15.59977295 0.18593562 17.93701172 0.22705078 C17.93701172 0.55705078 17.93701172 0.88705078 17.93701172 1.22705078 C11.50201172 1.72205078 11.50201172 1.72205078 4.93701172 2.22705078 C7.57701172 3.21705078 10.21701172 4.20705078 12.93701172 5.22705078 C9.06506002 6.51770135 6.49468571 5.45029177 2.74951172 4.28955078 C1.76821289 3.99661133 1.76821289 3.99661133 0.76708984 3.69775391 C-0.84526235 3.21522515 -2.45445118 2.72214873 -4.06298828 2.22705078 C-2.06298828 0.22705078 -2.06298828 0.22705078 0 0 Z " fill="#CDD8F4" transform="translate(158.06298828125,4.77294921875)"/>
<path d="M0 0 C0.88529564 2.44276019 1.1675728 3.58425986 0.1796875 6.03515625 C-2.43245814 10.09414903 -4.46628409 12.92744416 -9 15 C-7.61219205 11.10993227 -5.7847773 8.03441292 -3.375 4.6875 C-2.74335937 3.80449219 -2.11171875 2.92148438 -1.4609375 2.01171875 C-0.97882812 1.34785156 -0.49671875 0.68398437 0 0 Z " fill="#919BC7" transform="translate(37,93)"/>
<path d="M0 0 C0.66 0 1.32 0 2 0 C1.566875 0.8353125 1.566875 0.8353125 1.125 1.6875 C-0.0413253 4.08494645 -1.0339881 6.51596939 -2 9 C-2.99 9 -3.98 9 -5 9 C-5.33 10.98 -5.66 12.96 -6 15 C-6.99 14.67 -7.98 14.34 -9 14 C-7.50328459 9.50985376 -5.16631659 5.52151236 -2 2 C-1.34 2 -0.68 2 0 2 C0 1.34 0 0.68 0 0 Z " fill="#91B0D7" transform="translate(80,30)"/>
<path d="M0 0 C4.455 0.99 4.455 0.99 9 2 C9 3.65 9 5.3 9 7 C9.66 7 10.32 7 11 7 C11.33 8.65 11.66 10.3 12 12 C7.47384007 8.32167983 3.60575001 4.58913637 0 0 Z " fill="#96A2D5" transform="translate(183,18)"/>
<path d="M0 0 C8.58 0 17.16 0 26 0 C25.67 1.65 25.34 3.3 25 5 C24.01 5.495 24.01 5.495 23 6 C23 4.35 23 2.7 23 1 C15.41 1 7.82 1 0 1 C0 0.67 0 0.34 0 0 Z " fill="#B6CFF4" transform="translate(81,29)"/>
<path d="M0 0 C-1.31224548 3.93673644 -2.91910327 6.22719294 -6 9 C-6.12375 8.360625 -6.2475 7.72125 -6.375 7.0625 C-6.684375 6.0415625 -6.684375 6.0415625 -7 5 C-7.66 4.67 -8.32 4.34 -9 4 C-3.375 0 -3.375 0 0 0 Z " fill="#87ABD5" transform="translate(98,44)"/>
<path d="M0 0 C2.62187494 1.04874998 3.79371361 1.64931313 5.25 4.125 C5.4975 4.74375 5.745 5.3625 6 6 C5.01 6.33 4.02 6.66 3 7 C2.34 6.67 1.68 6.34 1 6 C0.67 6.66 0.34 7.32 0 8 C-3 4.25 -3 4.25 -3 2 C-2.34 2 -1.68 2 -1 2 C-0.67 1.34 -0.34 0.68 0 0 Z " fill="#775DA1" transform="translate(188,24)"/>
<path d="M0 0 C0.66 0 1.32 0 2 0 C2 0.66 2 1.32 2 2 C3.65 1.34 5.3 0.68 7 0 C8.32 2.64 9.64 5.28 11 8 C6.69235185 6.43358249 2.93828536 4.31663844 -1 2 C-0.67 1.34 -0.34 0.68 0 0 Z " fill="#90A5D8" transform="translate(172,10)"/>
<path d="M0 0 C0.33 0 0.66 0 1 0 C1.125 2.375 1.125 2.375 1 5 C0.34 5.66 -0.32 6.32 -1 7 C-1.474375 7.86625 -1.94875 8.7325 -2.4375 9.625 C-2.953125 10.40875 -3.46875 11.1925 -4 12 C-4.99 12 -5.98 12 -7 12 C-5.48109469 7.44328408 -3.04597738 3.68276708 0 0 Z " fill="#979BC6" transform="translate(21,117)"/>
<path d="M0 0 C0.33 0 0.66 0 1 0 C1.36498871 4.25820163 0.64481422 6.62558186 -2 10 C-4.6875 11.3125 -4.6875 11.3125 -7 12 C-5.48109469 7.44328408 -3.04597738 3.68276708 0 0 Z " fill="#96B0D3" transform="translate(70,44)"/>
<path d="M0 0 C1.32 0.33 2.64 0.66 4 1 C2.42466914 1.86883706 0.83935491 2.71959068 -0.75 3.5625 C-1.63171875 4.03816406 -2.5134375 4.51382813 -3.421875 5.00390625 C-6.20701188 6.07998186 -7.26980214 6.06528748 -10 5 C-9 3 -9 3 -5.5625 1.8125 C-2 1 -2 1 0 2 C0 1.34 0 0.68 0 0 Z " fill="#A68DB8" transform="translate(174,124)"/>
<path d="M0 0 C1.98 0.99 1.98 0.99 4 2 C4 3.98 4 5.96 4 8 C4.66 8 5.32 8 6 8 C6 10.97 6 13.94 6 17 C5.67 17 5.34 17 5 17 C4.35284867 14.9170757 3.70732834 12.83364461 3.0625 10.75 C2.70285156 9.58984375 2.34320313 8.4296875 1.97265625 7.234375 C1.24933363 4.82910942 0.57457589 2.44345956 0 0 Z " fill="#B4A4C9" transform="translate(179,48)"/>
<path d="M0 0 C1.9375 0.375 1.9375 0.375 4 1 C4.33 1.66 4.66 2.32 5 3 C7.52733235 3.65555119 7.52733235 3.65555119 10 4 C10 4.99 10 5.98 10 7 C5.1746274 6.58639663 3.13078071 4.5780351 0 1 C0 0.67 0 0.34 0 0 Z " fill="#6885BC" transform="translate(180,13)"/>
<path d="M0 0 C0 2 0 2 -1.625 4.125 C-4.60465619 6.47736015 -6.29706315 6.33663062 -10 6 C-9.34 5.67 -8.68 5.34 -8 5 C-7.67 4.01 -7.34 3.02 -7 2 C-4 0 -4 0 0 0 Z " fill="#6A77B8" transform="translate(41,126)"/>
<path d="M0 0 C0.66 1.32 1.32 2.64 2 4 C-0.48952921 6.66735273 -2.63408134 8.55746343 -6 10 C-4.34832443 6.4213696 -2.21713508 3.25179812 0 0 Z " fill="#97A5CF" transform="translate(44,83)"/>
<path d="M0 0 C1.98 0.66 3.96 1.32 6 2 C6.625 4.875 6.625 4.875 7 8 C6.34 8.66 5.68 9.32 5 10 C4.16121545 8.71186658 3.32913217 7.41936744 2.5 6.125 C2.0359375 5.40570313 1.571875 4.68640625 1.09375 3.9453125 C0 2 0 2 0 0 Z " fill="#91AAD0" transform="translate(29,47)"/>
<path d="M0 0 C0.99 0 1.98 0 3 0 C4.17935653 4.12774787 4.25851048 5.53468113 2.125 9.375 C1.42375 10.24125 0.7225 11.1075 0 12 C-0.33 12 -0.66 12 -1 12 C-1 10.35 -1 8.7 -1 7 C-0.34 7 0.32 7 1 7 C0.67 4.69 0.34 2.38 0 0 Z " fill="#87AFD8" transform="translate(100,31)"/>
<path d="M0 0 C2.6815279 3.07692746 3.42087807 5.19734663 3.6875 9.25 C3.75324219 10.14203125 3.81898438 11.0340625 3.88671875 11.953125 C3.92410156 12.62859375 3.96148437 13.3040625 4 14 C3.71125 13.38125 3.4225 12.7625 3.125 12.125 C2.06279958 9.86674235 2.06279958 9.86674235 0 8 C-0.6875 4.4375 -0.6875 4.4375 -1 1 C-0.67 0.67 -0.34 0.34 0 0 Z " fill="#765692" transform="translate(203,46)"/>
<path d="M0 0 C3.42931954 3.7559214 4.56429083 8.23466745 6 13 C2.98669907 10.99113271 1.1871676 9.46257217 0 6 C-0.125 2.75 -0.125 2.75 0 0 Z " fill="#A590BC" transform="translate(200,37)"/>
<path d="M0 0 C2.40575607 2.18517099 3.79535581 4.25919671 5.1875 7.1875 C5.53167969 7.90292969 5.87585938 8.61835938 6.23046875 9.35546875 C6.48441406 9.89816406 6.73835937 10.44085938 7 11 C3.23097793 9.30238262 1.80262292 7.78550813 0 4 C0 2.68 0 1.36 0 0 Z " fill="#E6F5FC" transform="translate(3,5)"/>
<path d="M0 0 C1.21386936 3.64160808 0.6674695 4.33165469 -0.9375 7.6875 C-1.31777344 8.49574219 -1.69804687 9.30398437 -2.08984375 10.13671875 C-2.39019531 10.75160156 -2.69054687 11.36648437 -3 12 C-3.33 12 -3.66 12 -4 12 C-3.12727273 3.12727273 -3.12727273 3.12727273 0 0 Z " fill="#A585B5" transform="translate(205,88)"/>
<path d="M0 0 C0.33 0.66 0.66 1.32 1 2 C1.66 2.33 2.32 2.66 3 3 C1.02 3 -0.96 3 -3 3 C-3 5.31 -3 7.62 -3 10 C-4.625 8.3125 -4.625 8.3125 -6 6 C-5.4375 3.3125 -5.4375 3.3125 -4 1 C-1.875 0.1875 -1.875 0.1875 0 0 Z " fill="#648CC0" transform="translate(46,25)"/>
<path d="M0 0 C-0.75 2.4375 -0.75 2.4375 -2 5 C-4.125 5.8125 -4.125 5.8125 -6 6 C-6.33 5.01 -6.66 4.02 -7 3 C-3.375 0 -3.375 0 0 0 Z " fill="#6683BD" transform="translate(56,64)"/>
<path d="M0 0 C2.9375 0.75 2.9375 0.75 6 2 C6.875 4.125 6.875 4.125 7 6 C5.68 6 4.36 6 3 6 C2.01 4.02 1.02 2.04 0 0 Z " fill="#9492BE" transform="translate(77,126)"/>
<path d="M0 0 C0.66 0.33 1.32 0.66 2 1 C-0.475 4.465 -0.475 4.465 -3 8 C-3.99 7.67 -4.98 7.34 -6 7 C-2.25 1.125 -2.25 1.125 0 0 Z " fill="#6B7AB4" transform="translate(71,87)"/>
<path d="M0 0 C-2.06756277 2.7972908 -3.14440371 3.02692273 -6.6875 3.6875 C-7.780625 3.790625 -8.87375 3.89375 -10 4 C-10 3.34 -10 2.68 -10 2 C-6.5980513 -0.09350689 -3.94727588 -0.17942163 0 0 Z " fill="#75589A" transform="translate(167,106)"/>
<path d="M0 0 C1.26467795 2.52935589 0.7249339 3.34190903 0 6 C0 6.99 0 7.98 0 9 C-0.66 8.67 -1.32 8.34 -2 8 C-2 7.34 -2 6.68 -2 6 C-2.66 6 -3.32 6 -4 6 C-2.25 1.125 -2.25 1.125 0 0 Z " fill="#9DAAD3" transform="translate(64,95)"/>
<path d="M0 0 C2.475 0.495 2.475 0.495 5 1 C5 3.31 5 5.62 5 8 C2.74754119 5.31158141 1.11786042 3.35358125 0 0 Z " fill="#93ABD0" transform="translate(35,57)"/>
<path d="M0 0 C1.051875 0.4640625 1.051875 0.4640625 2.125 0.9375 C5.08936657 2.03302678 7.87698108 2.56422992 11 3 C11 3.33 11 3.66 11 4 C9.37509046 4.02698189 7.75005367 4.04638757 6.125 4.0625 C4.76761719 4.07990234 4.76761719 4.07990234 3.3828125 4.09765625 C1 4 1 4 -1 3 C-0.67 2.01 -0.34 1.02 0 0 Z " fill="#687DB8" transform="translate(195,24)"/>
<path d="M0 0 C0.66 0.99 1.32 1.98 2 3 C1.2884375 3.6496875 1.2884375 3.6496875 0.5625 4.3125 C-1.23686957 6.02309613 -1.23686957 6.02309613 -2 9 C-2.99 9 -3.98 9 -5 9 C-3.7508258 5.54074837 -2.32472205 2.85306797 0 0 Z " fill="#9DA5CF" transform="translate(27,108)"/>
<path d="M0 0 C0.99 0.33 1.98 0.66 3 1 C4.1875 3.5625 4.1875 3.5625 5 6 C4.38125 5.79375 3.7625 5.5875 3.125 5.375 C2.42375 5.25125 1.7225 5.1275 1 5 C0.34 5.66 -0.32 6.32 -1 7 C-0.67 4.69 -0.34 2.38 0 0 Z " fill="#9591C0" transform="translate(91,107)"/>
<path d="M0 0 C1.32 0 2.64 0 4 0 C3.75 2.875 3.75 2.875 3 6 C0.9375 7.375 0.9375 7.375 -1 8 C-0.67 5.36 -0.34 2.72 0 0 Z " fill="#A1B3D9" transform="translate(46,75)"/>
<path d="M0 0 C1.01268859 3.79758221 1.01268859 6.20241779 0 10 C-1.32 8.02 -2.64 6.04 -4 4 C-3.67 3.34 -3.34 2.68 -3 2 C-2.01 2.33 -1.02 2.66 0 3 C0 2.01 0 1.02 0 0 Z " fill="#8FB3D7" transform="translate(22,27)"/>
<path d="M0 0 C0.99 0.99 1.98 1.98 3 3 C3 2.01 3 1.02 3 0 C3.66 0 4.32 0 5 0 C5 1.32 5 2.64 5 4 C2.125 4.125 2.125 4.125 -1 4 C-1.66 3.34 -2.32 2.68 -3 2 C-2.01 1.34 -1.02 0.68 0 0 Z " fill="#6C73B8" transform="translate(114,24)"/>
<path d="M0 0 C0.99 0.33 1.98 0.66 3 1 C3 2.32 3 3.64 3 5 C0.36 5 -2.28 5 -5 5 C-3.68 4.67 -2.36 4.34 -1 4 C-0.67 2.68 -0.34 1.36 0 0 Z " fill="#794385" transform="translate(244,127)"/>
<path d="M0 0 C0.33 0.66 0.66 1.32 1 2 C1.99 2 2.98 2 4 2 C4.33 1.34 4.66 0.68 5 0 C5.33 0.99 5.66 1.98 6 3 C4.68 3 3.36 3 2 3 C2 3.66 2 4.32 2 5 C0.35 5 -1.3 5 -3 5 C-2.01 3.35 -1.02 1.7 0 0 Z " fill="#774E90" transform="translate(172,121)"/>
<path d="M0 0 C0.33 1.32 0.66 2.64 1 4 C0.34 4 -0.32 4 -1 4 C-1 5.65 -1 7.3 -1 9 C-2.32 8.67 -3.64 8.34 -5 8 C-4.1875 6.0625 -4.1875 6.0625 -3 4 C-2.01 3.67 -1.02 3.34 0 3 C0 2.01 0 1.02 0 0 Z " fill="#805296" transform="translate(197,100)"/>
<path d="M0 0 C1.0013988 3.00419641 1.51421457 5.87709365 2 9 C1.01 9 0.02 9 -1 9 C-1.625 5.625 -1.625 5.625 -2 2 C-1.34 1.34 -0.68 0.68 0 0 Z " fill="#638EC9" transform="translate(30,38)"/>
<path d="M0 0 C0.99 0.99 1.98 1.98 3 3 C2.34 4.32 1.68 5.64 1 7 C-0.32 5.68 -1.64 4.36 -3 3 C-2.01 2.01 -1.02 1.02 0 0 Z " fill="#96A7D4" transform="translate(74,78)"/>
<path d="M0 0 C2.97 0.495 2.97 0.495 6 1 C5.34 2.65 4.68 4.3 4 6 C3.01 5.67 2.02 5.34 1 5 C0.67 3.35 0.34 1.7 0 0 Z " fill="#86A4CF" transform="translate(82,58)"/>
<path d="M0 0 C0.66 0.33 1.32 0.66 2 1 C0.875 3 0.875 3 -1 5 C-4.1875 5.25 -4.1875 5.25 -7 5 C-4.702779 3.25728062 -2.40133271 1.60088848 0 0 Z " fill="#AD97C5" transform="translate(168,101)"/>
<path d="M0 0 C0.8125 1.6875 0.8125 1.6875 1 4 C-1.4375 6.75 -1.4375 6.75 -4 9 C-4 5.00095031 -2.27413033 3.19799578 0 0 Z " fill="#A3B1D2" transform="translate(37,93)"/>
<path d="M0 0 C1.32 0.33 2.64 0.66 4 1 C3.67 1.99 3.34 2.98 3 4 C1.35 4 -0.3 4 -2 4 C-1.34 2.68 -0.68 1.36 0 0 Z " fill="#6978B9" transform="translate(107,24)"/>
<path d="M0 0 C2.64 0 5.28 0 8 0 C7.34 1.32 6.68 2.64 6 4 C4.02 3.01 2.04 2.02 0 1 C0 0.67 0 0.34 0 0 Z " fill="#6991C6" transform="translate(165,7)"/>
<path d="M0 0 C0.99 0 1.98 0 3 0 C1.8141763 3.37503669 0.72426311 5.64722731 -2 8 C-2 6.68 -2 5.36 -2 4 C-1.34 4 -0.68 4 0 4 C0 2.68 0 1.36 0 0 Z " fill="#AB90B8" transform="translate(198,100)"/>
<path d="M0 0 C0.99 0 1.98 0 3 0 C3 1.32 3 2.64 3 4 C3.66 4 4.32 4 5 4 C4.67 5.32 4.34 6.64 4 8 C0 2.25 0 2.25 0 0 Z " fill="#9EBDDE" transform="translate(10,16)"/>
</svg>
