<?xml version="1.0" standalone="no"?>
<!DOCTYPE svg PUBLIC "-//W3C//DTD SVG 20010904//EN"
 "http://www.w3.org/TR/2001/REC-SVG-20010904/DTD/svg10.dtd">
<svg version="1.0" xmlns="http://www.w3.org/2000/svg"
 width="32.000000pt" height="32.000000pt" viewBox="0 0 32.000000 32.000000"
 preserveAspectRatio="xMidYMid meet">

<g transform="translate(0.000000,32.000000) scale(0.100000,-0.100000)"
fill="#000000" stroke="none">
<path d="M115 253 c-33 -8 -42 -23 -14 -23 23 0 24 -1 21 -70 -2 -38 -7 -70
-11 -70 -4 0 -15 14 -25 30 -19 33 -43 32 -26 0 15 -29 43 -40 102 -41 l53 -2
-40 -7 c-29 -5 -15 -7 55 -8 61 0 86 3 70 8 l-25 8 25 2 c18 2 20 4 8 7 -14 3
-18 15 -18 55 0 44 -2 49 -15 38 -9 -7 -15 -29 -15 -51 l0 -39 -52 0 -53 1 33
14 c53 23 65 91 23 129 -19 18 -66 27 -96 19z m79 -39 c21 -20 20 -53 -1 -76
-29 -32 -41 -22 -45 37 -2 46 0 55 14 55 9 0 24 -7 32 -16z m69 -141 c-7 -2
-21 -2 -30 0 -10 3 -4 5 12 5 17 0 24 -2 18 -5z"/>
<path d="M232 253 c-24 -10 0 -23 44 -23 32 0 44 4 44 15 0 11 -10 15 -37 14
-21 0 -44 -3 -51 -6z"/>
<path d="M7 123 c-10 -9 -9 -23 2 -23 5 0 11 7 15 15 5 15 -5 20 -17 8z"/>
</g>
</svg>
